<svg id="eqY5jIE8aFn1" xmlns="http://www.w3.org/2000/svg" xmlns:xlink="http://www.w3.org/1999/xlink" viewBox="0 0 50 50" shape-rendering="geometricPrecision" text-rendering="geometricPrecision"><ellipse rx="3.057494" ry="2.92456" transform="translate(6.986548 11.208043)" fill="#d2dbed" stroke="#000" stroke-width="0.3" stroke-miterlimit="1"/><ellipse rx="3.057494" ry="2.92456" transform="translate(6.986548 36.208043)" fill="#d2dbed" stroke="#000" stroke-width="0.3" stroke-miterlimit="1"/><ellipse rx="3.057494" ry="2.92456" transform="translate(2.929054 17.057163)" fill="#d2dbed" stroke="#000" stroke-width="0.3" stroke-miterlimit="1"/><ellipse rx="3.057494" ry="2.92456" transform="translate(46.929054 17.057163)" fill="#d2dbed" stroke="#000" stroke-width="0.3" stroke-miterlimit="1"/><ellipse rx="3.057494" ry="2.92456" transform="translate(2.929054 24)" fill="#d2dbed" stroke="#000" stroke-width="0.3" stroke-miterlimit="1"/><ellipse rx="3.057494" ry="2.92456" transform="translate(46.929054 24)" fill="#d2dbed" stroke="#000" stroke-width="0.3" stroke-miterlimit="1"/><ellipse rx="3.057494" ry="2.92456" transform="translate(2.929054 30.906283)" fill="#d2dbed" stroke="#000" stroke-width="0.3" stroke-miterlimit="1"/><ellipse rx="3.057494" ry="2.92456" transform="translate(46.929054 30.906283)" fill="#d2dbed" stroke="#000" stroke-width="0.3" stroke-miterlimit="1"/><ellipse rx="3.057494" ry="2.92456" transform="translate(14.101536 11.208043)" fill="#d2dbed" stroke="#000" stroke-width="0.3" stroke-miterlimit="1"/><ellipse rx="3.057494" ry="2.92456" transform="translate(14.101536 36.208043)" fill="#d2dbed" stroke="#000" stroke-width="0.3" stroke-miterlimit="1"/><ellipse rx="3.057494" ry="2.92456" transform="translate(21.780494 11.208043)" fill="#d2dbed" stroke="#000" stroke-width="0.3" stroke-miterlimit="1"/><ellipse rx="3.057494" ry="2.92456" transform="translate(21.780494 36.208043)" fill="#d2dbed" stroke="#000" stroke-width="0.3" stroke-miterlimit="1"/><ellipse rx="3.057494" ry="2.92456" transform="translate(28.689433 11.208043)" fill="#d2dbed" stroke="#000" stroke-width="0.3" stroke-miterlimit="1"/><ellipse rx="3.057494" ry="2.92456" transform="translate(28.689433 36.208043)" fill="#d2dbed" stroke="#000" stroke-width="0.3" stroke-miterlimit="1"/><ellipse rx="3.057494" ry="2.92456" transform="translate(35.689433 11.208043)" fill="#d2dbed" stroke="#000" stroke-width="0.3" stroke-miterlimit="1"/><ellipse rx="3.057494" ry="2.92456" transform="translate(35.689433 36.208043)" fill="#d2dbed" stroke="#000" stroke-width="0.3" stroke-miterlimit="1"/><ellipse rx="3.057494" ry="2.92456" transform="translate(42.689433 11.208043)" fill="#d2dbed" stroke="#000" stroke-width="0.3" stroke-miterlimit="1"/><ellipse rx="3.057494" ry="2.92456" transform="translate(42.689433 36.208043)" fill="#d2dbed" stroke="#000" stroke-width="0.3" stroke-miterlimit="1"/><ellipse rx="3.057494" ry="2.92456" transform="translate(35.689433 11.208043)" fill="#d2dbed" stroke="#000" stroke-width="0.3" stroke-miterlimit="1"/><rect width="40.412097" height="18.743768" rx="0" ry="0" transform="matrix(1.084276 0 0 1.307199 2.929054 11.208043)" fill="#d2dbed" stroke="#000" stroke-width="0.3"/></svg>