<svg id="e1wSEVkOxLB1" xmlns="http://www.w3.org/2000/svg" xmlns:xlink="http://www.w3.org/1999/xlink" viewBox="0 0 50 50" shape-rendering="geometricPrecision" text-rendering="geometricPrecision"><ellipse rx="2.43021" ry="2.517447" transform="translate(10.43021 32.000001)" fill="#d2dbed" stroke="#000" stroke-width="0.3"/><ellipse rx="2.43021" ry="2.517447" transform="translate(10.43021 18.000001)" fill="#d2dbed" stroke="#000" stroke-width="0.3"/><ellipse rx="2.43021" ry="2.517447" transform="translate(7 21.841095)" fill="#d2dbed" stroke="#000" stroke-width="0.3"/><ellipse rx="2.43021" ry="2.517447" transform="translate(43 21.841095)" fill="#d2dbed" stroke="#000" stroke-width="0.3"/><ellipse rx="2.43021" ry="2.517447" transform="translate(7 28.032088)" fill="#d2dbed" stroke="#000" stroke-width="0.3"/><ellipse rx="2.43021" ry="2.517447" transform="translate(43 28.032088)" fill="#d2dbed" stroke="#000" stroke-width="0.3"/><ellipse rx="2.43021" ry="2.517447" transform="translate(16.195329 32.000001)" fill="#d2dbed" stroke="#000" stroke-width="0.3"/><ellipse rx="2.43021" ry="2.517447" transform="translate(16.195329 18.000001)" fill="#d2dbed" stroke="#000" stroke-width="0.3"/><ellipse rx="2.43021" ry="2.517447" transform="translate(21.880462 32.000001)" fill="#d2dbed" stroke="#000" stroke-width="0.3"/><ellipse rx="2.43021" ry="2.517447" transform="translate(21.880462 18.000001)" fill="#d2dbed" stroke="#000" stroke-width="0.3"/><ellipse rx="2.43021" ry="2.517447" transform="translate(27.740881 32)" fill="#d2dbed" stroke="#000" stroke-width="0.3"/><ellipse rx="2.43021" ry="2.517447" transform="translate(27.740881 18)" fill="#d2dbed" stroke="#000" stroke-width="0.3"/><ellipse rx="2.43021" ry="2.517447" transform="translate(33.477136 32)" fill="#d2dbed" stroke="#000" stroke-width="0.3"/><ellipse rx="2.43021" ry="2.517447" transform="translate(33.477136 18)" fill="#d2dbed" stroke="#000" stroke-width="0.3"/><ellipse rx="2.43021" ry="2.517447" transform="translate(39.337556 32.000001)" fill="#d2dbed" stroke="#000" stroke-width="0.3"/><ellipse rx="2.43021" ry="2.517447" transform="translate(39.337556 18.000001)" fill="#d2dbed" stroke="#000" stroke-width="0.3"/><rect width="32.527418" height="11.914257" rx="0" ry="0" transform="matrix(1.099619 0 0 1.167866 7 18.085745)" fill="#d2dbed" stroke="#000" stroke-width="0.3"/></svg>